<svg xmlns="http://www.w3.org/2000/svg" viewBox="0 -20 250 70" fill-rule="evenodd">
  <path d="
    M 0 0
    v 10
    a 40 40 0 0 0 40 40
    h 10
    V 0
    h -10
    v 40
    a 30 30 0 0 1 -30 -30
    V 0
    z
  "/>
  <path d="
    M 60 20
    v 10
    a 20 20 0 0 0 20 20
    h 30
    v -10
    h -30
    a 10 10 0 0 1 -10 -10
    h 40
    v -10
    a 20 20 0 0 0 -20 -20
    h -10
    a 20 20 0 0 0 -20 20
    z

    M 70 20
    a 10 10 0 0 1 10 -10
    h 10
    a 10 10 0 0 1 10 10
    z
  "/>
  <path d="
    M 120 -20
    h 10
    v 70
    a 10 10 0 0 1 -10 -10
    z
  "/>
  <path d="
    M 140 20
    a 20 20 0 0 1 20 -20
    h 10
    a 20 20 0 0 1 20 20
    v 30
    h -30
    a 20 20 0 0 1 -20 -20
    z

    M 150 20
    a 10 10 0 0 1 10 -10
    h 10
    a 10 10 0 0 1 10 10
    v 20
    h -20
    a 10 10 0 0 1 -10 -10
    z
  "/>
  <path d="
    M 210 50
    a 10 10 0 0 1 -10 -10
    v -10
    a 30 30 0 0 1 30 -30
    h 10
    a 10 10 0 0 1 10 10
    h -20
    a 20 20 0 0 0 -20 20
    z
  "/>
</svg>
