<svg xmlns="http://www.w3.org/2000/svg" viewBox="0 0 2250 1000"><defs><style>.cls-1{fill:#667;}.cls-2{fill:#fff;}</style></defs><g id="Layer_1" data-name="Layer 1"><rect class="cls-1" y="462.5" width="2250" height="75"/><rect class="cls-1" x="462.5" width="75" height="1000"/><path class="cls-2" d="M776.61,462.5h81.68C840,419,820.49,375.76,796.43,341.11,779.7,317,762.2,299,742.92,286.06,719.65,270.43,694,262.5,666.67,262.5s-53,7.93-76.26,23.56c-19.27,13-36.78,31-53.5,55.05-28.32,40.78-50.29,93.49-71.53,144.47-19.73,47.35-40.13,96.31-63.89,130.53-28.55,41.12-51.42,46.39-68.16,46.39s-39.6-5.27-68.15-46.39c-15.05-21.67-28.76-49.26-41.79-78.61H141.71C160,581,179.51,624.24,203.57,658.89,220.3,683,237.8,701,257.08,713.94c23.26,15.63,48.92,23.56,76.25,23.56s53-7.93,76.26-23.56c19.27-13,36.77-31,53.5-55.05,28.32-40.78,50.29-93.49,71.53-144.47,19.72-47.35,40.13-96.31,63.89-130.53,28.55-41.12,51.42-46.39,68.16-46.39s39.6,5.27,68.15,46.39C749.87,405.56,763.58,433.15,776.61,462.5Z"/><path class="cls-2" d="M1069,424.37l57,122,57-122h68l-109,216.5h-32l-109-216.5Z"/><path class="cls-2" d="M1488.5,580.37c-6.5,16-31,67.5-106.5,67.5-35,0-61.5-10-83-30.5-24-22.5-34-50.5-34-84.5,0-43,17.5-69.5,33-85,25.5-25,55.5-30.5,81.5-30.5,44,0,69.5,17.5,84.5,35.5,23,27.5,26,61.5,26,85v5H1328c0,13,3.5,27,10.5,36.5,6.5,9,20,20.5,43.5,20.5,23,0,40.5-11,50.5-28.5Zm-56-76.5c-5-29.5-29-43.5-51.5-43.5s-46,14.5-51,43.5Z"/><path class="cls-2" d="M1598,276.37v364.5h-61V276.37Z"/><path class="cls-2" d="M1822,424.37h61v216.5h-61v-28c-22,31.5-51,35-66.5,35-66.5,0-110.5-52-110.5-115.5,0-64,43.5-115,107.5-115,16.5,0,49,3,69.5,35Zm-114,108c0,34.5,25,61.5,60,61.5s60-27,60-61.5-25-61-60-61S1708,497.87,1708,532.37Z"/><path class="cls-2" d="M1941,424.37h61v32.5c9.5-18.5,22.5-27.5,27-30,9.5-6,21.5-9.5,36-9.5,10.5,0,19,2.5,26,5l-8,57c-8-5.5-16-8-28.5-8-11.5,0-28.5,2.5-40.5,17.5-11.5,14.5-12,33-12,48v104h-61Z"/></g></svg>