<svg xmlns="http://www.w3.org/2000/svg" viewBox="0 0 1000 1000"><defs><style>.cls-1{fill:#639;}.cls-2{fill:#74a;}.cls-3{fill:#fff;}</style></defs><g id="Layer_1" data-name="Layer 1"><circle class="cls-1" cx="500" cy="500" r="500"/><path class="cls-2" d="M998.61,537.5Q1000,518.93,1000,500t-1.39-37.5H1.39Q0,481.07,0,500t1.39,37.5Z"/><path class="cls-2" d="M537.5,1.39Q518.93,0,500,0T462.5,1.39V998.61Q481.07,1000,500,1000t37.5-1.39Z"/><path class="cls-3" d="M776.61,462.5h81.68C840,419,820.49,375.76,796.43,341.11,779.7,317,762.2,299,742.92,286.06,719.65,270.43,694,262.5,666.67,262.5s-53,7.93-76.26,23.56c-19.27,13-36.78,31-53.5,55.05-28.32,40.78-50.29,93.49-71.53,144.47-19.73,47.35-40.13,96.31-63.89,130.53-28.55,41.12-51.42,46.39-68.16,46.39s-39.6-5.27-68.15-46.39c-15.05-21.67-28.76-49.26-41.79-78.61H141.71C160,581,179.51,624.24,203.57,658.89,220.3,683,237.8,701,257.08,713.94c23.26,15.63,48.92,23.56,76.25,23.56s53-7.93,76.26-23.56c19.27-13,36.77-31,53.5-55.05,28.32-40.78,50.29-93.49,71.53-144.47,19.72-47.35,40.13-96.31,63.89-130.53,28.55-41.12,51.42-46.39,68.16-46.39s39.6,5.27,68.15,46.39C749.87,405.56,763.58,433.15,776.61,462.5Z"/></g></svg>